<?xml version="1.0" encoding="utf-8"?>
<!-- Generator: Adobe Illustrator 28.0.0, SVG Export Plug-In . SVG Version: 6.00 Build 0)  -->
<svg version="1.1" id="Layer_1" xmlns="http://www.w3.org/2000/svg" xmlns:xlink="http://www.w3.org/1999/xlink" x="0px" y="0px"
	 viewBox="0 0 1080 1080" style="enable-background:new 0 0 1080 1080;" xml:space="preserve">
<style type="text/css">
	.st0{fill:#008783;}
	.st1{fill:#5B2C8F;}
	.st2{fill:#00FFD1;}
	.st3{fill:#C27FE2;}
</style>
<g>
	<path class="st0" d="M311.94,482.23h36.28L302.79,602h-33.91l-45.43-119.77h36.96l25.85,74.68L311.94,482.23z"/>
	<path class="st0" d="M499.44,602V482.23h33.14V602H499.44z"/>
	<path class="st0" d="M640.49,482.23v31.28h-30.52V602h-33.14v-88.49h-30.6v-31.28H640.49z"/>
	<path class="st0" d="M655.39,602c-3.88,0-7.12-1.3-9.71-3.9c-2.6-2.6-3.9-5.8-3.9-9.6c0-3.8,1.3-7.01,3.9-9.6
		c2.6-2.6,5.84-3.9,9.71-3.9c3.84,0,7.06,1.29,9.66,3.87c2.6,2.58,3.9,5.79,3.9,9.63c0,3.84-1.3,7.05-3.9,9.63
		C662.45,600.72,659.23,602,655.39,602z"/>
	<path class="st1" d="M693.55,602V482.23h15.94V602H693.55z"/>
	<path class="st1" d="M793.82,602c-8.82,0-17.09-1.6-24.84-4.79c-7.74-3.19-14.38-7.53-19.92-13.01c-5.54-5.48-9.9-12.05-13.1-19.71
		c-3.19-7.66-4.79-15.84-4.79-24.54c0-11.58,2.71-22.11,8.14-31.57c5.42-9.46,12.93-16.9,22.5-22.29c9.58-5.4,20.24-8.09,32-8.09
		c11.75,0,22.42,2.7,32,8.09c9.58,5.4,17.09,12.83,22.55,22.29c5.45,9.47,8.18,19.99,8.18,31.57c0,11.58-2.73,22.12-8.18,31.62
		c-5.45,9.49-12.97,16.94-22.55,22.34C816.24,599.31,805.58,602,793.82,602z M770.22,580.56c7.09,4.07,14.96,6.1,23.61,6.1
		s16.51-2.03,23.61-6.1c7.09-4.07,12.66-9.68,16.7-16.83c4.04-7.15,6.06-15.07,6.06-23.78c0-8.7-2.02-16.63-6.06-23.78
		c-4.04-7.15-9.61-12.74-16.7-16.78c-7.09-4.04-14.96-6.06-23.61-6.06c-6.5,0-12.62,1.19-18.35,3.56
		c-5.74,2.37-10.64,5.62-14.71,9.75c-4.07,4.13-7.29,9.07-9.66,14.83c-2.37,5.76-3.56,11.92-3.56,18.48c0,8.7,2.01,16.63,6.02,23.78
		C757.57,570.88,763.12,576.49,770.22,580.56z"/>
	<polygon class="st0" points="445.93,578.96 445.84,578.96 376.93,482.1 361.15,482.1 402.21,539.8 358.09,601.8 391.22,601.8 
		418.76,563.07 446.3,601.8 462.21,601.8 	"/>
	<g>
		<polygon class="st1" points="443.26,482.1 421.71,512.37 438.27,535.64 476.34,482.1 		"/>
		<polygon class="st1" points="394.26,482.1 392.89,482.1 382.95,482.1 479.41,601.8 		"/>
	</g>
</g>
</svg>
